<svg width="313" height="335" viewBox="0 0 313 335" fill="none" xmlns="http://www.w3.org/2000/svg">
<path d="M102.614 38.2056C114.798 32.9881 126.42 30.2237 133.879 29.6719C141.192 29.1307 154.305 29.5029 168.202 33.0724C182.085 36.6383 197.127 43.4951 207.797 56.2229C213.175 62.6395 215.681 68.5811 218.086 74.2471C220.066 78.9123 221.973 83.3815 225.355 88.3113C230.58 95.9244 237.865 104.197 243.92 110.631C246.934 113.832 249.615 116.549 251.54 118.464C252.503 119.42 253.276 120.176 253.806 120.69C254.071 120.947 254.276 121.144 254.413 121.276C254.482 121.341 254.534 121.391 254.568 121.423C254.585 121.44 254.597 121.452 254.605 121.46C254.609 121.463 254.612 121.467 254.614 121.468L254.615 121.47C255.968 122.756 256.174 124.845 255.1 126.388L248.722 135.545C249.158 136.223 249.678 137.04 250.252 137.983C252.007 140.862 254.316 144.914 256.525 149.601C260.846 158.767 265.185 171.173 263.354 182.063C261.93 190.527 259.708 197.009 255.752 202.405C252.47 206.881 248.169 210.367 242.697 213.64L245.514 218.307L280.229 222.551C281.637 222.723 282.824 223.67 283.306 225.004C283.788 226.338 283.484 227.835 282.518 228.883L281.309 230.193C281.307 230.195 281.305 230.198 281.303 230.2L281.277 230.228L281.271 230.235L281.198 230.313L281.193 230.318C281.164 230.349 281.128 230.388 281.086 230.432C281.03 230.491 280.965 230.56 280.89 230.639C280.628 230.917 280.245 231.317 279.752 231.823C278.765 232.835 277.333 234.274 275.531 235.999C271.932 239.445 266.831 244.063 260.829 248.741C249.076 257.902 232.92 268.056 217.507 268.916C210.558 269.304 204.131 269.541 198.196 269.729L192.423 269.905L192.307 269.909L192.307 269.908L188.315 270.03C179.765 270.295 172.492 270.586 166.133 271.294C153.498 272.699 145.16 275.675 138.465 282.704C134.771 286.582 131.621 290.675 128.581 294.714L127.717 295.864C125.036 299.434 122.336 303.035 119.495 306.088C116.333 309.486 112.715 312.521 108.253 314.248C103.686 316.014 98.6573 316.247 92.9843 314.748C89.0081 313.698 85.7119 311.735 83.724 308.542C81.7478 305.369 81.5482 301.757 82.1386 298.412L82.2549 297.806C83.5504 291.517 87.816 284.483 92.6172 277.974C100.212 267.678 110.437 257.042 117.217 249.983L117.219 249.98C118.446 248.702 119.552 247.549 120.515 246.533L113.675 231.534C113.643 231.463 113.613 231.391 113.585 231.319L112.323 228.029C112.248 227.831 112.188 227.627 112.147 227.418C111.962 226.498 111.916 226.154 111.765 225.443C111.645 224.877 111.532 224.481 111.409 224.176C111.237 223.754 111.058 223.501 110.629 223.268C107.732 222.258 94.7583 217.242 80.6487 208.971C66.1266 200.458 49.6285 188.06 42.2777 172.444C37.828 162.991 35.0878 154.706 33.951 146.09C32.8147 137.477 33.3074 128.738 35.078 118.413C39.427 93.0528 50.1868 80.3064 67.1977 62.101C77.339 51.2475 90.4083 43.4323 102.614 38.2056Z" fill="#171E1E" stroke="white" stroke-width="7.58168" stroke-linejoin="round"/>
<path d="M217.566 224.418C218.354 225.021 219.144 225.653 219.916 226.307C222.737 228.696 225.253 231.322 226.621 233.888C227.976 236.428 228.135 238.737 226.598 240.768C225.016 242.859 223.23 243.859 221.147 244.604C220.254 244.923 219.323 245.189 218.316 245.478L218.316 245.478C218.123 245.533 217.928 245.588 217.731 245.645C216.508 245.998 215.198 246.393 213.821 246.941C212.789 247.351 200.375 249.729 200.375 249.729C200.375 249.729 166.267 257.702 152.059 245.415C147.002 241.041 141.772 231.77 141.772 231.77C139.917 227.934 138.29 222.681 137.121 218.349C136.595 216.4 136.165 214.648 135.852 213.314C138.811 213.005 141.216 214.137 143.912 215.405L143.912 215.405C145.269 216.043 146.699 216.715 148.31 217.256C153.636 219.045 157.746 221.544 161.677 223.934L161.677 223.935C167.434 227.435 172.807 230.702 181.053 231.161C193.389 231.849 205.652 228.984 217.566 224.418Z" fill="white"/>
<path fill-rule="evenodd" clip-rule="evenodd" d="M144.246 193.769C144.246 193.769 170.847 217.791 202.163 206.912C233.478 196.033 237.911 194.177 242.376 185.529C246.841 176.882 231.42 145.428 231.42 145.428L221.07 145.032L239.23 126.749C239.23 126.749 215.99 106.882 208.832 102.335C202.191 98.1182 202.19 95.357 202.185 89.0756C202.185 88.5856 202.184 88.0743 202.181 87.5392C202.132 80.1432 185.857 70.4009 185.857 70.4009C185.857 70.4009 120.084 103.704 119.528 106.558C118.971 109.412 125.332 114.996 125.332 114.996C125.332 114.996 121.777 116.421 121.463 121.092C121.149 125.763 141.343 171.968 141.343 171.968C141.343 171.968 137.353 177.156 128.478 173.776C124.569 172.288 121.795 169.292 118.987 166.26C115.419 162.408 111.796 158.497 105.722 157.542C105.575 157.519 105.429 157.496 105.283 157.473C98.3478 156.38 92.7186 155.493 87.3438 160.125C79.8545 166.579 82.2595 176.6 86.934 185.167C92.0718 194.583 100.412 197.032 111.165 198.418C119.051 199.434 124.069 198.773 131.381 195.577C135.397 193.821 140.884 189.614 140.884 189.614L144.246 193.769ZM160.281 124.064L153.558 115.755C153.558 115.755 160.274 105.994 167.849 103.568C174.403 101.469 183.713 103.189 183.713 103.189L184.438 108.639C184.438 108.639 177.507 109.286 173.532 111.097C166.931 114.105 160.281 124.064 160.281 124.064ZM220.109 165.624C212.081 168.603 205.407 167.691 205.407 167.691C205.407 167.691 202.809 171.094 202.457 173.657C202.164 175.79 203.183 179.107 203.183 179.107C203.183 179.107 220.946 178.938 225.116 175.1C230.17 170.446 234.135 165.504 234.135 165.504L232.49 160.183C232.49 160.183 224.204 164.105 220.109 165.624ZM188.356 133.654C185.24 137.705 179.092 138.276 174.625 134.929C170.158 131.582 169.063 125.584 172.18 121.532C175.296 117.48 181.443 116.909 185.91 120.257C190.377 123.604 191.472 129.602 188.356 133.654Z" fill="white"/>
</svg>
