<svg xmlns="http://www.w3.org/2000/svg" width="568" height="133" viewBox="0 0 568 133" fill="none"><g clip-path="url(#clip0_1955_63)"><path d="M194.439 64.8367V20.8319H199.326V63.906H204.334L221.893 63.9744V64.8367H194.439Z" fill="white"></path><path d="M246.774 64.8367H245.984L261.895 25.4172L260.317 20.8319C263.665 20.873 265.339 20.873 265.339 20.8319L283.36 64.8367H278.147L271.219 48.1792H253.538L246.801 64.8367H246.774ZM262.222 26.3479L253.77 47.4538H270.729L262.222 26.3479Z" fill="white"></path><path d="M322.601 47.1799C323.526 48.7677 325.731 51.0124 329.229 53.8867C332.727 56.7611 335.926 58.8142 338.825 60.0597L335.722 64.6998C331.72 63.0162 327.038 57.1991 321.662 47.2484C321.008 47.2894 320.341 47.3168 319.688 47.3168H315.196V64.8366H310.242V20.8318H323.309C325.772 20.8318 327.923 21.215 329.774 21.9542C331.625 22.707 333.068 23.7061 334.102 24.938C335.137 26.1835 335.912 27.4975 336.416 28.8936C336.92 30.2897 337.178 31.7406 337.178 33.2462C337.178 37.2292 335.899 40.4321 333.354 42.8684C330.795 45.3048 327.215 46.7419 322.601 47.1799ZM315.21 46.5229H319.702C323.662 46.5229 326.698 45.5101 328.807 43.4707C330.917 41.4313 331.979 38.5158 331.979 34.7108C331.979 33.0683 331.775 31.5079 331.38 30.0297C330.985 28.5515 330.373 27.169 329.529 25.8824C328.699 24.5958 327.528 23.5829 326.031 22.8301C324.534 22.0773 322.791 21.7078 320.818 21.7078H315.21V46.5229Z" fill="white"></path><path d="M364.25 64.8366H363.461L379.372 25.417L377.793 20.8318C381.141 20.8728 382.816 20.8728 382.816 20.8318L400.837 64.8366H395.624L388.696 48.1791H371.015L364.277 64.8366H364.25ZM379.699 26.3478L371.246 47.4537H388.206L379.699 26.3478Z" fill="white"></path><path d="M207.138 98.6445C208.363 98.6855 209.629 98.8361 210.895 99.0825C212.161 99.3288 213.576 99.7258 215.114 100.273C216.652 100.821 218.014 101.491 219.211 102.258C220.395 103.038 221.403 104.065 222.219 105.338C223.036 106.624 223.444 108.034 223.444 109.581C223.444 111.401 223.077 113.03 222.328 114.494C221.58 115.959 220.613 117.122 219.429 118.012C218.245 118.902 216.87 119.641 215.332 120.229C213.794 120.832 212.27 121.242 210.772 121.489C209.275 121.735 207.764 121.858 206.213 121.858H193.282V77.8534C201.898 77.8945 206.458 77.9218 206.948 77.9218C210.636 77.9218 213.508 78.8389 215.564 80.673C217.605 82.5071 218.626 84.9161 218.626 87.8725C218.626 89.4603 218.313 90.8974 217.673 92.1567C217.034 93.4159 216.149 94.4698 215.033 95.3048C213.917 96.1397 212.705 96.8241 211.399 97.3579C210.105 97.8917 208.676 98.316 207.138 98.6171V98.6445ZM205.355 121.146C207.506 121.146 209.439 120.818 211.126 120.147C212.814 119.49 214.148 118.601 215.114 117.492C216.081 116.383 216.816 115.206 217.319 113.947C217.823 112.688 218.082 111.387 218.082 110.06C218.082 108.116 217.687 106.405 216.897 104.954C216.108 103.49 215.005 102.34 213.604 101.505C212.202 100.67 210.65 100.041 208.949 99.6163C207.261 99.192 205.396 98.9867 203.368 98.9867H198.155V121.146H205.355ZM198.223 78.8115V98.316H203.368C206.716 98.2749 209.194 97.3852 210.8 95.6606C212.406 93.936 213.209 91.2533 213.209 87.6262C213.209 84.9708 212.406 82.8356 210.8 81.2205C209.194 79.6054 207.029 78.7978 204.294 78.7978H198.223V78.8115Z" fill="white"></path><path d="M263.897 104.215C264.822 105.803 267.027 108.048 270.525 110.922C274.024 113.796 277.222 115.849 280.121 117.095L277.018 121.735C273.016 120.051 268.334 114.234 262.958 104.284C262.304 104.325 261.637 104.352 260.984 104.352H256.493V121.872H251.538V77.8671H264.605C267.068 77.8671 269.219 78.2366 271.07 78.9894C272.921 79.7422 274.364 80.7414 275.398 81.9733C276.433 83.2188 277.209 84.5328 277.712 85.9289C278.216 87.325 278.474 88.7759 278.474 90.2815C278.474 94.2645 277.195 97.4674 274.65 99.9037C272.091 102.34 268.511 103.777 263.897 104.215ZM256.506 103.558H260.998C264.959 103.558 267.994 102.545 270.104 100.506C272.213 98.4665 273.275 95.5511 273.275 91.746C273.275 90.1036 273.071 88.5432 272.676 87.065C272.281 85.5867 271.669 84.2043 270.825 82.9177C269.995 81.6311 268.824 80.6182 267.327 79.8654C265.83 79.1126 264.087 78.7431 262.114 78.7431H256.506V103.558Z" fill="white"></path><path d="M313.059 78.7978V98.3023H327.705V99.233H313.059V120.941H335.626V121.872H308.173V77.8671H335.626V78.9894L313.059 78.7841V78.7978Z" fill="white"></path><path d="M363.556 121.872H362.562V77.867H366.319L390.805 111.319C390.982 111.579 391.227 111.661 391.527 111.552C391.84 111.442 391.99 111.237 391.99 110.922L391.921 77.867H393.038V121.735H392.316L364.727 84.697C364.55 84.478 364.318 84.4096 364.032 84.4917C363.747 84.5738 363.597 84.7791 363.597 85.0939L363.529 121.858L363.556 121.872Z" fill="white"></path><path d="M424.261 121.872H423.268V77.867H427.024L451.511 111.319C451.688 111.579 451.933 111.661 452.232 111.552C452.545 111.442 452.695 111.237 452.695 110.922L452.627 77.867H453.743V121.735H453.022L425.432 84.697C425.255 84.478 425.024 84.4096 424.738 84.4917C424.452 84.5738 424.302 84.7791 424.302 85.0939L424.234 121.858L424.261 121.872Z" fill="white"></path><path d="M488.942 78.7978V98.3023H503.588V99.233H488.942V120.941H511.509V121.872H484.056V77.8671H511.509V78.9894L488.942 78.7841V78.7978Z" fill="white"></path><path d="M550.844 104.215C551.77 105.803 553.975 108.048 557.473 110.922C560.971 113.796 564.169 115.849 567.069 117.095L563.965 121.735C559.964 120.051 555.281 114.234 549.905 104.284C549.252 104.325 548.585 104.352 547.931 104.352H543.44V121.872H538.485V77.8671H551.552C554.016 77.8671 556.166 78.2366 558.017 78.9894C559.868 79.7422 561.311 80.7414 562.346 81.9733C563.38 83.2188 564.156 84.5328 564.659 85.9289C565.163 87.325 565.422 88.7759 565.422 90.2815C565.422 94.2645 564.142 97.4674 561.597 99.9037C559.038 102.34 555.458 103.777 550.844 104.215ZM543.453 103.558H547.945C551.906 103.558 554.941 102.545 557.051 100.506C559.161 98.4665 560.222 95.5511 560.222 91.746C560.222 90.1036 560.018 88.5432 559.623 87.065C559.229 85.5867 558.616 84.2043 557.772 82.9177C556.942 81.6311 555.771 80.6182 554.274 79.8654C552.777 79.1126 551.035 78.7431 549.061 78.7431H543.453V103.558Z" fill="white"></path><path d="M67.0541 133L0.917969 66.5068L67.0541 0L133.19 66.5068L67.0541 133.014V133ZM5.16462 66.5068L67.0541 128.743L128.943 66.5068L67.0541 4.27045L5.16462 66.5068Z" fill="#BFA98C"></path><path d="M36.2393 88.3382V17.2871H44.1201V86.8326H52.2186L80.5704 86.942V88.3382H36.2393Z" fill="#BFA98C"></path><path d="M83.321 66.3289C85.3082 66.3974 87.3362 66.6301 89.3915 67.027C91.4468 67.4239 93.7198 68.0672 96.2106 68.9569C98.7014 69.8466 100.893 70.9279 102.812 72.1734C104.731 73.419 106.351 75.0888 107.658 77.1556C108.978 79.2224 109.631 81.5082 109.631 84.013C109.631 86.9421 109.032 89.5837 107.821 91.938C106.609 94.2922 105.044 96.1947 103.139 97.6182C101.219 99.0417 99.0145 100.246 96.5373 101.204C94.0465 102.162 91.5965 102.847 89.1873 103.244C86.7782 103.641 84.3146 103.832 81.8374 103.832H60.958V32.7949C74.8821 32.8634 82.2321 32.9044 83.0215 32.9044C88.9832 32.9044 93.6245 34.3827 96.932 37.3528C100.239 40.323 101.886 44.1965 101.886 48.9734C101.886 51.5466 101.369 53.8461 100.348 55.8855C99.3139 57.9249 97.8984 59.6221 96.0881 60.9772C94.2779 62.3322 92.3179 63.4409 90.2218 64.3032C88.1257 65.1655 85.839 65.8362 83.3482 66.3426L83.321 66.3289ZM80.449 102.655C83.9335 102.655 87.0368 102.121 89.7726 101.054C92.5084 99.9861 94.659 98.549 96.2242 96.7696C97.7895 94.9902 98.9737 93.074 99.7903 91.0346C100.607 88.9952 101.015 86.9147 101.015 84.7658C101.015 81.6177 100.376 78.8666 99.0962 76.5123C97.8167 74.1581 96.0473 72.2966 93.7742 70.9416C91.5012 69.5865 88.9968 68.5737 86.2609 67.8893C83.5251 67.2049 80.5171 66.8764 77.2504 66.8764H68.8388V102.669H80.449V102.655ZM68.9341 34.2868V65.7951H77.2504C82.654 65.7267 86.6421 64.2895 89.2418 61.511C91.8279 58.7188 93.1345 54.4073 93.1345 48.5491C93.1345 44.2649 91.8415 40.8157 89.2418 38.2014C86.6421 35.6008 83.144 34.2868 78.7476 34.2868H68.9477H68.9341Z" fill="#BFA98C"></path><path d="M80.5693 116.726V87.9551H79.1674V116.726H80.5693Z" fill="#BFA98C"></path><path d="M62.3438 36.4631V7.69226H60.9418V36.4631H62.3438Z" fill="#BFA98C"></path></g><defs><clipPath id="clip0_1955_63"><rect width="566.165" height="133" fill="white" transform="translate(0.916992)"></rect></clipPath></defs></svg>