<svg xmlns="http://www.w3.org/2000/svg" xmlns:xlink="http://www.w3.org/1999/xlink" width="180" zoomAndPan="magnify" viewBox="0 0 135 44.999999" height="60" preserveAspectRatio="xMidYMid meet" version="1.2"><defs><clipPath id="1424308e55"><path d="M 11.640625 11.929688 L 33 11.929688 L 33 32.929688 L 11.640625 32.929688 Z M 11.640625 11.929688 "/></clipPath><clipPath id="17be02b7c6"><path d="M 111 17 L 123.390625 17 L 123.390625 30 L 111 30 Z M 111 17 "/></clipPath></defs><g id="89af67f009"><rect x="0" width="135" y="0" height="44.999999" style="fill:#ffffff;fill-opacity:1;stroke:none;"/><rect x="0" width="135" y="0" height="44.999999" style="fill:#ffffff;fill-opacity:1;stroke:none;"/><g clip-rule="nonzero" clip-path="url(#1424308e55)"><path style=" stroke:none;fill-rule:nonzero;fill:#bc368c;fill-opacity:1;" d="M 22.210938 11.960938 C 22.242188 11.957031 22.277344 11.957031 22.308594 11.957031 C 24.535156 11.960938 26.695312 12.617188 28.476562 13.953125 C 28.5 13.964844 28.519531 13.980469 28.539062 14 C 28.84375 14.226562 29.125 14.472656 29.402344 14.730469 C 29.457031 14.78125 29.511719 14.832031 29.566406 14.878906 C 29.738281 15.03125 29.898438 15.183594 30.050781 15.359375 C 30.117188 15.4375 30.1875 15.515625 30.261719 15.589844 C 30.789062 16.175781 31.230469 16.832031 31.601562 17.523438 C 31.613281 17.546875 31.625 17.566406 31.636719 17.59375 C 32.113281 18.46875 32.417969 19.410156 32.609375 20.390625 C 32.617188 20.421875 32.625 20.457031 32.632812 20.496094 C 32.742188 21.101562 32.777344 21.703125 32.773438 22.316406 C 32.773438 22.433594 32.773438 22.550781 32.777344 22.667969 C 32.777344 23.371094 32.714844 24.078125 32.558594 24.765625 C 32.550781 24.804688 32.542969 24.847656 32.53125 24.886719 C 32.144531 26.5625 31.332031 28.121094 30.15625 29.378906 C 30.089844 29.457031 30.019531 29.53125 29.953125 29.609375 C 29.691406 29.90625 29.398438 30.1875 29.09375 30.441406 C 29.070312 30.464844 29.070312 30.464844 29.039062 30.488281 C 27.3125 31.960938 25.023438 32.890625 22.734375 32.902344 C 22.695312 32.902344 22.660156 32.902344 22.621094 32.902344 C 22.5 32.902344 22.382812 32.902344 22.261719 32.902344 C 22.203125 32.90625 22.203125 32.90625 22.140625 32.90625 C 21.554688 32.902344 20.988281 32.894531 20.414062 32.785156 C 20.382812 32.78125 20.347656 32.773438 20.308594 32.769531 C 18.894531 32.515625 17.574219 31.996094 16.382812 31.199219 C 16.359375 31.183594 16.335938 31.167969 16.3125 31.152344 C 15.890625 30.863281 15.503906 30.535156 15.125 30.191406 C 15.066406 30.140625 15.011719 30.089844 14.953125 30.039062 C 14.800781 29.910156 14.664062 29.777344 14.53125 29.621094 C 14.460938 29.542969 14.386719 29.464844 14.3125 29.386719 C 12.835938 27.847656 11.941406 25.730469 11.734375 23.621094 C 11.734375 23.589844 11.730469 23.558594 11.722656 23.527344 C 11.480469 20.761719 12.207031 17.996094 14 15.839844 C 14.0625 15.765625 14.128906 15.691406 14.199219 15.621094 C 14.265625 15.550781 14.328125 15.480469 14.394531 15.40625 C 14.765625 14.984375 15.171875 14.578125 15.621094 14.242188 C 15.667969 14.203125 15.714844 14.167969 15.757812 14.132812 C 17.304688 12.925781 19.109375 12.207031 21.070312 12.003906 C 21.117188 12 21.117188 12 21.164062 11.992188 C 21.511719 11.960938 21.859375 11.960938 22.210938 11.957031 Z M 20.667969 14.425781 C 20.613281 14.433594 20.613281 14.433594 20.558594 14.445312 C 19.289062 14.707031 18.152344 15.234375 17.144531 16.046875 C 17.128906 16.066406 17.105469 16.082031 17.085938 16.097656 C 16.601562 16.492188 16.152344 16.925781 15.765625 17.417969 C 15.722656 17.46875 15.722656 17.46875 15.683594 17.523438 C 14.5625 18.90625 14.042969 20.660156 14.046875 22.421875 C 14.046875 22.453125 14.046875 22.484375 14.046875 22.515625 C 14.054688 24.242188 14.550781 25.890625 15.621094 27.269531 C 15.644531 27.296875 15.664062 27.328125 15.691406 27.359375 C 16.140625 27.933594 16.671875 28.488281 17.253906 28.929688 C 17.289062 28.953125 17.289062 28.953125 17.324219 28.980469 C 18.800781 30.113281 20.65625 30.675781 22.519531 30.589844 C 22.566406 30.585938 22.566406 30.585938 22.617188 30.585938 C 23.457031 30.542969 24.269531 30.402344 25.0625 30.121094 C 25.105469 30.105469 25.152344 30.089844 25.199219 30.074219 C 26.46875 29.601562 27.644531 28.738281 28.511719 27.703125 C 28.53125 27.683594 28.546875 27.664062 28.5625 27.644531 C 29.734375 26.257812 30.378906 24.5625 30.4375 22.757812 C 30.4375 22.722656 30.4375 22.722656 30.441406 22.6875 C 30.496094 20.683594 29.867188 18.757812 28.550781 17.238281 C 28.523438 17.207031 28.496094 17.175781 28.46875 17.144531 C 28.089844 16.710938 27.671875 16.285156 27.207031 15.941406 C 27.1875 15.925781 27.167969 15.910156 27.148438 15.898438 C 26.027344 15.066406 24.742188 14.527344 23.355469 14.351562 C 23.332031 14.351562 23.308594 14.347656 23.285156 14.339844 C 22.441406 14.242188 21.496094 14.257812 20.667969 14.425781 Z M 20.667969 14.425781 "/></g><path style=" stroke:none;fill-rule:nonzero;fill:#e43c52;fill-opacity:1;" d="M 67.074219 17.371094 C 67.097656 17.371094 67.121094 17.367188 67.144531 17.367188 C 68.878906 17.371094 70.335938 18.058594 71.574219 19.234375 C 72.695312 20.382812 73.273438 21.898438 73.265625 23.484375 C 73.265625 23.523438 73.265625 23.523438 73.265625 23.566406 C 73.265625 24.003906 73.238281 24.421875 73.144531 24.847656 C 73.140625 24.875 73.132812 24.902344 73.125 24.929688 C 72.882812 26.050781 72.292969 26.988281 71.511719 27.808594 C 71.484375 27.835938 71.457031 27.867188 71.425781 27.898438 C 70.691406 28.667969 69.679688 29.226562 68.640625 29.46875 C 68.597656 29.476562 68.597656 29.476562 68.550781 29.488281 C 67.589844 29.707031 66.511719 29.695312 65.554688 29.46875 C 65.527344 29.460938 65.496094 29.453125 65.46875 29.445312 C 64.902344 29.3125 64.378906 29.0625 63.878906 28.769531 C 63.796875 28.71875 63.714844 28.675781 63.628906 28.636719 C 63.628906 28.667969 63.628906 28.695312 63.628906 28.722656 C 63.632812 29 63.636719 29.277344 63.636719 29.550781 C 63.636719 29.691406 63.636719 29.832031 63.640625 29.972656 C 63.644531 30.109375 63.644531 30.246094 63.644531 30.382812 C 63.644531 30.4375 63.644531 30.488281 63.644531 30.539062 C 63.652344 30.953125 63.601562 31.292969 63.308594 31.601562 C 62.902344 31.941406 62.378906 31.917969 61.886719 31.882812 C 61.570312 31.828125 61.34375 31.664062 61.140625 31.417969 C 60.949219 31.144531 60.933594 30.824219 60.933594 30.5 C 60.933594 30.464844 60.933594 30.433594 60.933594 30.402344 C 60.933594 30.292969 60.933594 30.1875 60.933594 30.082031 C 60.933594 30.003906 60.933594 29.925781 60.933594 29.851562 C 60.933594 29.640625 60.933594 29.429688 60.933594 29.222656 C 60.933594 29.046875 60.933594 28.875 60.933594 28.699219 C 60.933594 28.285156 60.933594 27.871094 60.933594 27.460938 C 60.933594 27.035156 60.933594 26.609375 60.933594 26.1875 C 60.929688 25.820312 60.929688 25.457031 60.929688 25.089844 C 60.929688 24.871094 60.929688 24.652344 60.929688 24.4375 C 60.929688 24.230469 60.929688 24.023438 60.929688 23.820312 C 60.929688 23.746094 60.929688 23.671875 60.929688 23.597656 C 60.925781 22.082031 61.375 20.605469 62.429688 19.480469 C 62.496094 19.40625 62.5625 19.335938 62.625 19.257812 C 63.535156 18.226562 64.859375 17.601562 66.207031 17.414062 C 66.246094 17.410156 66.246094 17.410156 66.28125 17.40625 C 66.542969 17.371094 66.808594 17.371094 67.074219 17.367188 Z M 64.507812 21.152344 C 63.871094 21.886719 63.539062 22.765625 63.605469 23.742188 C 63.675781 24.609375 64.039062 25.339844 64.648438 25.972656 C 64.675781 26.003906 64.675781 26.003906 64.703125 26.035156 C 65.269531 26.648438 66.148438 26.9375 66.957031 26.988281 C 67.902344 27.011719 68.796875 26.679688 69.492188 26.039062 C 70.179688 25.382812 70.554688 24.566406 70.609375 23.613281 C 70.628906 22.601562 70.230469 21.722656 69.539062 21 C 68.859375 20.347656 68.023438 20.046875 67.097656 20.011719 C 66.101562 20.050781 65.199219 20.4375 64.507812 21.152344 Z M 64.507812 21.152344 "/><path style=" stroke:none;fill-rule:nonzero;fill:#df2e64;fill-opacity:1;" d="M 56.839844 18.679688 C 56.867188 18.699219 56.867188 18.699219 56.898438 18.726562 C 57.519531 19.226562 58.027344 19.796875 58.4375 20.484375 C 58.449219 20.503906 58.460938 20.527344 58.476562 20.546875 C 58.921875 21.300781 59.136719 22.132812 59.214844 23 C 59.21875 23.050781 59.21875 23.050781 59.222656 23.105469 C 59.246094 23.445312 59.265625 23.804688 59.054688 24.089844 C 58.878906 24.285156 58.667969 24.402344 58.40625 24.425781 C 58.28125 24.429688 58.15625 24.429688 58.035156 24.429688 C 57.960938 24.429688 57.960938 24.429688 57.890625 24.433594 C 57.761719 24.433594 57.628906 24.433594 57.5 24.433594 C 57.359375 24.433594 57.21875 24.433594 57.082031 24.4375 C 56.8125 24.4375 56.546875 24.4375 56.277344 24.441406 C 55.96875 24.441406 55.660156 24.441406 55.355469 24.445312 C 53.464844 24.453125 51.574219 24.457031 49.683594 24.453125 C 49.71875 24.535156 49.753906 24.621094 49.785156 24.707031 C 49.796875 24.730469 49.804688 24.757812 49.816406 24.78125 C 49.976562 25.183594 50.191406 25.535156 50.484375 25.859375 C 50.523438 25.90625 50.523438 25.90625 50.566406 25.953125 C 51.160156 26.578125 52 26.957031 52.867188 26.984375 C 53.835938 27 54.714844 26.738281 55.425781 26.0625 C 55.453125 26.03125 55.453125 26.03125 55.480469 26.003906 C 55.648438 25.835938 55.824219 25.734375 56.074219 25.734375 C 56.097656 25.734375 56.128906 25.734375 56.15625 25.734375 C 56.527344 25.796875 56.75 26.027344 57.007812 26.289062 C 57.070312 26.351562 57.132812 26.414062 57.195312 26.476562 C 57.457031 26.730469 57.644531 26.953125 57.6875 27.324219 C 57.625 27.851562 57.191406 28.148438 56.796875 28.453125 C 55.527344 29.421875 53.886719 29.847656 52.300781 29.648438 C 50.605469 29.410156 49.136719 28.585938 48.085938 27.234375 C 47.070312 25.878906 46.714844 24.210938 46.945312 22.550781 C 47.144531 21.289062 47.722656 20.21875 48.59375 19.292969 C 48.644531 19.242188 48.644531 19.242188 48.691406 19.191406 C 50.773438 17.011719 54.492188 16.789062 56.839844 18.679688 Z M 50.460938 21.195312 C 50.304688 21.382812 50.15625 21.566406 50.046875 21.78125 C 52.027344 21.78125 54.003906 21.78125 56.039062 21.78125 C 55.769531 21.101562 55.050781 20.605469 54.398438 20.320312 C 53.058594 19.773438 51.433594 20.117188 50.460938 21.195312 Z M 50.460938 21.195312 "/><path style=" stroke:none;fill-rule:nonzero;fill:#e7473a;fill-opacity:1;" d="M 85.199219 18.808594 C 85.519531 19.09375 85.808594 19.386719 86.074219 19.726562 C 86.117188 19.777344 86.117188 19.777344 86.160156 19.835938 C 86.738281 20.589844 87.058594 21.4375 87.234375 22.359375 C 87.238281 22.382812 87.246094 22.410156 87.25 22.433594 C 87.53125 23.9375 87.171875 25.597656 86.3125 26.863281 C 85.964844 27.34375 85.566406 27.832031 85.09375 28.203125 C 85.074219 28.21875 85.054688 28.234375 85.035156 28.25 C 84.152344 28.945312 83.15625 29.382812 82.042969 29.539062 C 82.019531 29.542969 81.992188 29.546875 81.96875 29.550781 C 80.363281 29.757812 78.730469 29.359375 77.4375 28.386719 C 77.203125 28.207031 76.992188 28.007812 76.777344 27.808594 C 76.75 27.785156 76.722656 27.757812 76.691406 27.730469 C 75.984375 27.0625 75.476562 26.15625 75.203125 25.230469 C 75.195312 25.203125 75.1875 25.171875 75.179688 25.144531 C 75.03125 24.621094 74.980469 24.089844 74.980469 23.546875 C 74.980469 23.460938 74.980469 23.371094 74.980469 23.28125 C 74.980469 22.742188 75.046875 22.207031 75.203125 21.6875 C 75.214844 21.65625 75.222656 21.625 75.234375 21.59375 C 75.519531 20.652344 76.058594 19.851562 76.738281 19.148438 C 76.765625 19.117188 76.792969 19.089844 76.824219 19.058594 C 78.847656 16.941406 82.457031 16.757812 85.199219 18.808594 Z M 78.882812 20.808594 C 78.84375 20.839844 78.804688 20.867188 78.765625 20.898438 C 78.113281 21.476562 77.726562 22.292969 77.648438 23.152344 C 77.597656 24.117188 77.863281 25.023438 78.519531 25.75 C 79.144531 26.4375 79.960938 26.878906 80.902344 26.9375 C 80.929688 26.941406 80.960938 26.941406 80.988281 26.941406 C 81.011719 26.945312 81.039062 26.945312 81.066406 26.945312 C 82.011719 26.976562 82.878906 26.601562 83.566406 25.96875 C 83.589844 25.945312 83.617188 25.925781 83.640625 25.902344 C 84.191406 25.398438 84.582031 24.585938 84.628906 23.84375 C 84.648438 22.789062 84.476562 21.933594 83.75 21.132812 C 83.71875 21.097656 83.691406 21.066406 83.65625 21.03125 C 83.027344 20.371094 82.171875 20.019531 81.261719 19.96875 C 80.367188 19.957031 79.558594 20.226562 78.882812 20.808594 Z M 78.882812 20.808594 "/><g clip-rule="nonzero" clip-path="url(#17be02b7c6)"><path style=" stroke:none;fill-rule:nonzero;fill:#a14491;fill-opacity:1;" d="M 121.058594 18.558594 C 121.089844 18.585938 121.121094 18.613281 121.152344 18.640625 C 121.191406 18.671875 121.226562 18.703125 121.261719 18.734375 C 122.472656 19.804688 123.226562 21.25 123.332031 22.863281 C 123.402344 24.472656 123.015625 26.082031 121.902344 27.296875 C 121.851562 27.351562 121.804688 27.40625 121.753906 27.457031 C 121.6875 27.527344 121.628906 27.59375 121.566406 27.667969 C 121.453125 27.804688 121.328125 27.910156 121.191406 28.023438 C 121.171875 28.039062 121.152344 28.054688 121.136719 28.070312 C 119.828125 29.183594 118.191406 29.574219 116.5 29.460938 C 115.847656 29.394531 115.210938 29.230469 114.617188 28.960938 C 114.59375 28.953125 114.570312 28.941406 114.546875 28.929688 C 113.132812 28.296875 111.933594 27.019531 111.378906 25.582031 C 111.296875 25.363281 111.230469 25.140625 111.175781 24.917969 C 111.167969 24.875 111.167969 24.875 111.152344 24.832031 C 111.042969 24.371094 111.011719 23.921875 111.011719 23.453125 C 111.011719 23.363281 111.007812 23.273438 111.007812 23.179688 C 111.007812 22.636719 111.074219 22.097656 111.230469 21.574219 C 111.238281 21.542969 111.246094 21.511719 111.257812 21.480469 C 111.53125 20.59375 112.023438 19.796875 112.675781 19.132812 C 112.726562 19.074219 112.78125 19.019531 112.835938 18.964844 C 114.941406 16.789062 118.746094 16.597656 121.058594 18.558594 Z M 114.90625 20.699219 C 114.882812 20.71875 114.859375 20.738281 114.835938 20.757812 C 114.195312 21.265625 113.792969 22.085938 113.683594 22.878906 C 113.601562 23.820312 113.804688 24.710938 114.386719 25.464844 C 115.0625 26.257812 115.886719 26.738281 116.9375 26.828125 C 117.828125 26.863281 118.695312 26.628906 119.375 26.039062 C 119.402344 26.015625 119.433594 25.992188 119.460938 25.972656 C 120.113281 25.417969 120.523438 24.675781 120.644531 23.839844 C 120.707031 22.84375 120.554688 21.949219 119.90625 21.164062 C 119.285156 20.472656 118.496094 19.945312 117.539062 19.871094 C 117.511719 19.871094 117.480469 19.871094 117.449219 19.871094 C 117.386719 19.867188 117.386719 19.867188 117.324219 19.863281 C 116.425781 19.84375 115.59375 20.109375 114.90625 20.699219 Z M 114.90625 20.699219 "/></g><path style=" stroke:none;fill-rule:nonzero;fill:#cf485d;fill-opacity:1;" d="M 95.082031 17.296875 C 95.175781 17.296875 95.269531 17.296875 95.363281 17.292969 C 97.027344 17.289062 98.464844 17.996094 99.648438 19.132812 C 100.851562 20.375 101.367188 21.933594 101.367188 23.636719 C 101.367188 23.6875 101.367188 23.742188 101.367188 23.796875 C 101.367188 23.941406 101.367188 24.085938 101.367188 24.230469 C 101.367188 24.324219 101.367188 24.414062 101.367188 24.503906 C 101.367188 24.789062 101.367188 25.074219 101.367188 25.355469 C 101.367188 25.6875 101.371094 26.015625 101.371094 26.34375 C 101.371094 26.597656 101.371094 26.851562 101.371094 27.105469 C 101.371094 27.253906 101.371094 27.40625 101.371094 27.558594 C 101.375 27.699219 101.375 27.84375 101.375 27.984375 C 101.375 28.035156 101.375 28.089844 101.375 28.144531 C 101.375 28.546875 101.339844 28.855469 101.074219 29.175781 C 100.792969 29.460938 100.484375 29.511719 100.089844 29.539062 C 100.0625 29.542969 100.03125 29.542969 100.003906 29.546875 C 99.621094 29.5625 99.296875 29.441406 99.007812 29.191406 C 98.679688 28.847656 98.6875 28.417969 98.683594 27.964844 C 98.683594 27.898438 98.683594 27.832031 98.683594 27.765625 C 98.679688 27.539062 98.675781 27.3125 98.675781 27.085938 C 98.675781 27.007812 98.671875 26.925781 98.671875 26.84375 C 98.667969 26.417969 98.664062 25.992188 98.664062 25.566406 C 98.664062 25.5 98.664062 25.5 98.664062 25.4375 C 98.660156 25.214844 98.660156 24.992188 98.660156 24.769531 C 98.660156 24.550781 98.660156 24.332031 98.65625 24.113281 C 98.65625 24.03125 98.65625 23.949219 98.65625 23.863281 C 98.652344 22.75 98.394531 21.753906 97.597656 20.925781 C 96.890625 20.253906 96.003906 19.957031 95.035156 19.96875 C 94.105469 20 93.28125 20.394531 92.644531 21.058594 C 91.976562 21.769531 91.71875 22.632812 91.722656 23.589844 C 91.722656 23.644531 91.722656 23.699219 91.722656 23.753906 C 91.722656 23.875 91.722656 23.992188 91.722656 24.109375 C 91.722656 24.296875 91.722656 24.484375 91.722656 24.667969 C 91.722656 25.132812 91.722656 25.59375 91.722656 26.058594 C 91.722656 26.421875 91.722656 26.78125 91.71875 27.144531 C 91.71875 27.328125 91.71875 27.515625 91.71875 27.699219 C 91.71875 27.816406 91.71875 27.929688 91.71875 28.046875 C 91.71875 28.097656 91.71875 28.152344 91.71875 28.203125 C 91.722656 28.5 91.710938 28.738281 91.554688 29 C 91.539062 29.027344 91.523438 29.058594 91.503906 29.089844 C 91.328125 29.324219 91.117188 29.46875 90.832031 29.539062 C 90.679688 29.550781 90.53125 29.554688 90.386719 29.554688 C 90.347656 29.554688 90.304688 29.554688 90.265625 29.554688 C 89.917969 29.558594 89.621094 29.480469 89.359375 29.238281 C 89.136719 28.996094 89.042969 28.738281 89.039062 28.40625 C 89.039062 28.367188 89.039062 28.367188 89.039062 28.328125 C 89.039062 28.242188 89.035156 28.15625 89.035156 28.070312 C 89.035156 28.007812 89.035156 27.945312 89.03125 27.886719 C 89.03125 27.722656 89.03125 27.554688 89.027344 27.390625 C 89.027344 27.285156 89.027344 27.183594 89.027344 27.078125 C 89.019531 26.621094 89.015625 26.164062 89.015625 25.707031 C 89.015625 25.609375 89.015625 25.511719 89.015625 25.410156 C 89.011719 25.035156 89.007812 24.65625 89.007812 24.277344 C 89.007812 24.199219 89.007812 24.121094 89.007812 24.039062 C 89.003906 23.34375 89 22.644531 89.164062 21.964844 C 89.171875 21.933594 89.179688 21.898438 89.1875 21.863281 C 89.433594 20.886719 89.914062 20.023438 90.613281 19.292969 C 90.652344 19.242188 90.695312 19.195312 90.734375 19.148438 C 91.816406 17.921875 93.464844 17.292969 95.082031 17.296875 Z M 95.082031 17.296875 "/><path style=" stroke:none;fill-rule:nonzero;fill:#b6467c;fill-opacity:1;" d="M 104.390625 13.757812 C 104.441406 13.757812 104.441406 13.757812 104.492188 13.757812 C 104.863281 13.765625 105.136719 13.847656 105.40625 14.101562 C 105.738281 14.460938 105.734375 14.875 105.730469 15.332031 C 105.730469 15.390625 105.730469 15.445312 105.730469 15.503906 C 105.730469 15.648438 105.730469 15.792969 105.726562 15.941406 C 105.726562 16.089844 105.726562 16.242188 105.722656 16.390625 C 105.722656 16.683594 105.722656 16.976562 105.71875 17.269531 C 105.761719 17.269531 105.800781 17.269531 105.84375 17.269531 C 107.222656 17.230469 107.222656 17.230469 107.792969 17.226562 C 107.828125 17.226562 107.867188 17.226562 107.902344 17.226562 C 108.304688 17.226562 108.597656 17.308594 108.90625 17.570312 C 109.164062 17.875 109.257812 18.167969 109.253906 18.5625 C 109.253906 18.59375 109.253906 18.625 109.253906 18.660156 C 109.246094 19.027344 109.175781 19.304688 108.914062 19.582031 C 108.554688 19.914062 108.167969 19.917969 107.703125 19.917969 C 107.644531 19.917969 107.585938 19.917969 107.53125 19.917969 C 107.382812 19.917969 107.230469 19.914062 107.082031 19.914062 C 106.925781 19.914062 106.773438 19.910156 106.621094 19.910156 C 106.320312 19.910156 106.019531 19.90625 105.71875 19.90625 C 105.722656 20.269531 105.726562 20.632812 105.730469 21 C 105.734375 21.167969 105.734375 21.335938 105.738281 21.507812 C 105.75 22.449219 105.75 22.449219 105.769531 23.390625 C 105.773438 23.425781 105.773438 23.464844 105.773438 23.503906 C 105.808594 24.398438 106.203125 25.292969 106.863281 25.910156 C 107.328125 26.300781 107.800781 26.539062 108.378906 26.726562 C 108.699219 26.835938 108.976562 26.996094 109.136719 27.304688 C 109.316406 27.6875 109.351562 28.191406 109.234375 28.601562 C 109.105469 28.914062 108.871094 29.148438 108.578125 29.320312 C 107.890625 29.523438 107.175781 29.21875 106.554688 28.925781 C 106.53125 28.914062 106.507812 28.902344 106.480469 28.894531 C 105.917969 28.621094 105.417969 28.257812 104.976562 27.820312 C 104.925781 27.773438 104.871094 27.726562 104.820312 27.675781 C 104.015625 26.917969 103.484375 25.925781 103.21875 24.855469 C 103.210938 24.828125 103.203125 24.800781 103.195312 24.773438 C 103.078125 24.265625 103.058594 23.75 103.058594 23.226562 C 103.058594 23.164062 103.058594 23.101562 103.058594 23.039062 C 103.054688 22.871094 103.054688 22.703125 103.054688 22.535156 C 103.054688 22.359375 103.054688 22.179688 103.050781 22 C 103.050781 21.695312 103.050781 21.394531 103.046875 21.09375 C 103.046875 20.675781 103.046875 20.257812 103.042969 19.839844 C 103.039062 19.183594 103.035156 18.527344 103.035156 17.875 C 103.035156 17.480469 103.03125 17.085938 103.027344 16.695312 C 103.027344 16.464844 103.027344 16.238281 103.023438 16.011719 C 103.023438 15.882812 103.023438 15.757812 103.023438 15.628906 C 103.023438 15.488281 103.019531 15.351562 103.019531 15.214844 C 103.019531 15.175781 103.019531 15.136719 103.019531 15.09375 C 103.019531 14.714844 103.109375 14.390625 103.359375 14.097656 C 103.644531 13.816406 104 13.75 104.390625 13.757812 Z M 104.390625 13.757812 "/><path style=" stroke:none;fill-rule:nonzero;fill:#dc1b73;fill-opacity:1;" d="M 45.722656 18.941406 C 45.765625 18.980469 45.808594 19.019531 45.851562 19.054688 C 45.871094 19.070312 45.890625 19.085938 45.90625 19.105469 C 46.097656 19.28125 46.222656 19.484375 46.234375 19.742188 C 46.230469 20.125 46.015625 20.339844 45.753906 20.589844 C 45.730469 20.613281 45.707031 20.640625 45.683594 20.664062 C 45.609375 20.734375 45.539062 20.804688 45.46875 20.875 C 45.421875 20.921875 45.375 20.96875 45.328125 21.011719 C 45.304688 21.035156 45.285156 21.054688 45.265625 21.078125 C 45.082031 21.25 44.910156 21.335938 44.65625 21.363281 C 44.386719 21.335938 44.222656 21.242188 44.027344 21.058594 C 43.222656 20.339844 42.335938 20.121094 41.269531 20.152344 C 40.421875 20.199219 39.613281 20.667969 39.042969 21.277344 C 38.222656 22.222656 38.160156 23.324219 38.167969 24.519531 C 38.171875 24.695312 38.171875 24.871094 38.171875 25.046875 C 38.175781 25.546875 38.179688 26.042969 38.179688 26.539062 C 38.183594 26.816406 38.183594 27.09375 38.183594 27.367188 C 38.183594 27.542969 38.183594 27.71875 38.1875 27.890625 C 38.1875 28 38.1875 28.105469 38.1875 28.214844 C 38.1875 28.289062 38.1875 28.363281 38.191406 28.433594 C 38.191406 28.820312 38.121094 29.152344 37.851562 29.441406 C 37.542969 29.695312 37.230469 29.726562 36.84375 29.730469 C 36.808594 29.734375 36.769531 29.734375 36.730469 29.734375 C 36.386719 29.738281 36.050781 29.664062 35.792969 29.425781 C 35.480469 29.058594 35.476562 28.65625 35.476562 28.195312 C 35.476562 28.140625 35.476562 28.085938 35.476562 28.03125 C 35.476562 27.882812 35.476562 27.734375 35.476562 27.582031 C 35.476562 27.457031 35.476562 27.328125 35.476562 27.203125 C 35.476562 26.910156 35.476562 26.613281 35.476562 26.3125 C 35.476562 26.011719 35.476562 25.707031 35.476562 25.402344 C 35.472656 25.136719 35.472656 24.875 35.472656 24.609375 C 35.472656 24.453125 35.472656 24.296875 35.472656 24.140625 C 35.46875 22.375 35.804688 20.773438 37.070312 19.457031 C 37.15625 19.367188 37.15625 19.367188 37.230469 19.269531 C 37.335938 19.140625 37.464844 19.039062 37.59375 18.929688 C 37.636719 18.890625 37.636719 18.890625 37.683594 18.847656 C 39.960938 16.875 43.480469 17.035156 45.722656 18.941406 Z M 45.722656 18.941406 "/><path style=" stroke:none;fill-rule:nonzero;fill:#bc368c;fill-opacity:1;" d="M 28.039062 17.742188 C 28.234375 17.910156 28.390625 18.132812 28.441406 18.390625 C 28.445312 18.460938 28.449219 18.535156 28.449219 18.605469 C 28.449219 18.648438 28.449219 18.695312 28.449219 18.738281 C 28.449219 18.789062 28.449219 18.839844 28.449219 18.886719 C 28.449219 18.941406 28.453125 18.992188 28.453125 19.042969 C 28.453125 19.183594 28.453125 19.328125 28.453125 19.46875 C 28.453125 19.558594 28.453125 19.644531 28.453125 19.730469 C 28.457031 20.042969 28.460938 20.351562 28.460938 20.664062 C 28.464844 20.949219 28.46875 21.238281 28.46875 21.527344 C 28.472656 21.773438 28.472656 22.019531 28.476562 22.269531 C 28.476562 22.414062 28.476562 22.5625 28.480469 22.707031 C 28.5 24.625 28.242188 26.40625 26.84375 27.839844 C 26.824219 27.859375 26.808594 27.878906 26.789062 27.898438 C 26.734375 27.953125 26.679688 28.007812 26.625 28.0625 C 25.621094 29.101562 24.167969 29.765625 22.714844 29.800781 C 21.605469 29.816406 20.589844 29.707031 19.578125 29.214844 C 19.558594 29.203125 19.535156 29.191406 19.511719 29.183594 C 19.027344 28.945312 18.605469 28.652344 18.214844 28.285156 C 18.140625 28.214844 18.066406 28.152344 17.984375 28.09375 C 17.824219 27.957031 17.742188 27.808594 17.714844 27.601562 C 17.703125 27.308594 17.789062 27.101562 17.984375 26.878906 C 18.027344 26.835938 18.070312 26.792969 18.113281 26.75 C 18.144531 26.714844 18.144531 26.714844 18.175781 26.679688 C 18.222656 26.632812 18.269531 26.585938 18.316406 26.539062 C 18.375 26.476562 18.4375 26.414062 18.492188 26.351562 C 18.746094 26.085938 18.929688 25.925781 19.308594 25.910156 C 19.625 25.925781 19.777344 26.058594 20.003906 26.265625 C 20.707031 26.910156 21.625 27.15625 22.558594 27.121094 C 23.3125 27.0625 23.984375 26.785156 24.554688 26.292969 C 24.578125 26.273438 24.601562 26.253906 24.628906 26.234375 C 25.292969 25.699219 25.644531 24.878906 25.753906 24.054688 C 25.769531 23.859375 25.769531 23.664062 25.769531 23.46875 C 25.769531 23.414062 25.769531 23.359375 25.769531 23.304688 C 25.769531 23.183594 25.769531 23.066406 25.769531 22.945312 C 25.769531 22.757812 25.769531 22.570312 25.769531 22.382812 C 25.769531 21.949219 25.769531 21.519531 25.769531 21.085938 C 25.769531 20.6875 25.773438 20.289062 25.773438 19.890625 C 25.773438 19.703125 25.773438 19.515625 25.773438 19.332031 C 25.773438 19.214844 25.773438 19.097656 25.773438 18.980469 C 25.773438 18.929688 25.773438 18.875 25.773438 18.824219 C 25.773438 18.402344 25.808594 18.125 26.105469 17.816406 C 26.574219 17.402344 27.527344 17.386719 28.039062 17.742188 Z M 28.039062 17.742188 "/><path style=" stroke:none;fill-rule:nonzero;fill:#bc368c;fill-opacity:1;" d="M 23.925781 21.574219 C 24.058594 21.683594 24.179688 21.804688 24.300781 21.925781 C 24.328125 21.953125 24.355469 21.980469 24.382812 22.007812 C 24.683594 22.328125 24.878906 22.648438 24.953125 23.082031 C 24.960938 23.125 24.96875 23.167969 24.980469 23.214844 C 25.050781 23.957031 24.917969 24.644531 24.464844 25.246094 C 24.421875 25.292969 24.378906 25.339844 24.335938 25.390625 C 24.304688 25.425781 24.304688 25.425781 24.269531 25.460938 C 23.933594 25.824219 23.480469 26.136719 22.980469 26.207031 C 22.953125 26.214844 22.925781 26.21875 22.894531 26.222656 C 22.074219 26.339844 21.3125 26.207031 20.632812 25.714844 C 20.164062 25.355469 19.746094 24.847656 19.660156 24.25 C 19.640625 24.066406 19.640625 23.878906 19.636719 23.691406 C 19.636719 23.652344 19.636719 23.613281 19.636719 23.570312 C 19.640625 22.886719 19.917969 22.320312 20.398438 21.835938 C 21.332031 20.949219 22.859375 20.761719 23.925781 21.574219 Z M 23.925781 21.574219 "/><path style=" stroke:none;fill-rule:nonzero;fill:#a04392;fill-opacity:1;" d="M 118.496094 21.710938 C 118.953125 22.085938 119.203125 22.605469 119.261719 23.1875 C 119.289062 23.835938 119.070312 24.375 118.632812 24.851562 C 118.246094 25.222656 117.707031 25.417969 117.171875 25.4375 C 116.550781 25.410156 116.027344 25.183594 115.589844 24.742188 C 115.171875 24.246094 115.042969 23.675781 115.089844 23.042969 C 115.171875 22.441406 115.511719 21.964844 115.988281 21.605469 C 116.769531 21.097656 117.75 21.191406 118.496094 21.710938 Z M 118.496094 21.710938 "/></g></svg>